<?xml version="1.0" standalone="no"?>
<!DOCTYPE svg PUBLIC "-//W3C//DTD SVG 20010904//EN"
 "http://www.w3.org/TR/2001/REC-SVG-20010904/DTD/svg10.dtd">
<svg version="1.0" xmlns="http://www.w3.org/2000/svg"
 width="700.000000pt" height="700.000000pt" viewBox="0 0 700.000000 700.000000"
 preserveAspectRatio="xMidYMid meet">
<metadata>
Created by potrace 1.14, written by Peter Selinger 2001-2017
</metadata>
<g transform="translate(0.000000,700.000000) scale(0.100000,-0.100000)"
fill="#000000" stroke="none">
<path d="M3454 6990 c-27 -11 -447 -431 -483 -484 -86 -125 -122 -254 -115
-406 12 -270 204 -514 462 -586 l62 -17 0 -81 0 -81 -478 -1 c-262 -1 -495 -5
-517 -9 -244 -45 -431 -287 -412 -535 10 -128 68 -255 151 -330 l33 -31 0
-1769 0 -1770 -41 -1 c-22 0 -268 -1 -546 -2 -468 -2 -507 -3 -531 -20 -31
-21 -54 -69 -51 -108 3 -36 336 -696 368 -729 l24 -25 293 -3 c292 -3 293 -3
327 20 21 14 40 38 46 58 l12 35 71 1 c67 1 71 -1 71 -22 0 -32 51 -81 91 -89
19 -3 775 -4 1681 -3 l1648 3 24 25 c14 14 102 178 196 365 180 357 190 385
156 438 -37 55 -32 55 -616 53 l-537 -1 0 1636 c0 1568 -1 1638 -19 1668 -16
28 -66 61 -92 61 -6 0 -10 21 -9 48 1 48 2 49 55 83 131 83 217 209 241 355
28 170 -21 324 -143 446 -65 66 -119 99 -211 129 -69 23 -78 23 -557 23 l-488
1 0 80 0 81 73 22 c252 75 439 315 452 583 7 135 -38 292 -113 402 -17 24
-130 143 -250 264 -170 169 -228 222 -252 227 -40 7 -49 7 -76 -4z"/>
</g>
</svg>
