<?xml version="1.0" encoding="iso-8859-1"?>
<!-- Uploaded to: SVG Repo, www.svgrepo.com, Generator: SVG Repo Mixer Tools -->
<svg version="1.1" id="Layer_1" xmlns="http://www.w3.org/2000/svg" xmlns:xlink="http://www.w3.org/1999/xlink" 
	 viewBox="0 0 512.001 512.001" xml:space="preserve">
<rect x="166.413" y="188.224" style="fill:#FCC447;" width="178.957" height="267.556"/>
<g>
	<path style="fill:#E8AF3D;" d="M345.374,188.226v18.822c-4.425,2.757-9.637,4.344-15.22,4.344H181.637
		c-5.583,0-10.795-1.587-15.22-4.344v-18.822H345.374z"/>
	<polyline style="fill:#E8AF3D;" points="204.062,188.231 204.062,455.785 166.423,455.785 166.423,188.231 	"/>
</g>
<path style="fill:#FC675B;" d="M228.56,90.698L228.56,90.698c-15.097-15.097-15.097-39.576,0-54.673L255.895,8.69l27.336,27.336
	c15.097,15.097,15.097,39.576,0,54.673l0,0C268.135,105.796,243.657,105.796,228.56,90.698z"/>
<path style="fill:#FFCF83;" d="M330.152,130.457H181.64c-15.954,0-28.887,12.934-28.887,28.887l0,0
	c0,15.954,12.934,28.887,28.887,28.887h53.859c13.663,0,24.74,11.077,24.74,24.74v55.799c0,12.474,10.112,22.586,22.586,22.586l0,0
	c12.474,0,22.586-10.112,22.586-22.586v-55.799c0-13.663,11.077-24.74,24.74-24.74l0,0c15.953,0,28.887-12.934,28.887-28.887l0,0
	C359.039,143.391,346.105,130.457,330.152,130.457z"/>
<path style="fill:#E8B56B;" d="M184.514,159.35c0,7.969,3.232,15.197,8.467,20.421c5.224,5.224,12.452,8.456,20.421,8.456h-31.761
	c-7.969,0-15.197-3.232-20.421-8.456c-5.236-5.224-8.467-12.452-8.467-20.421c0-15.961,12.938-28.888,28.888-28.888h31.761
	C197.452,130.462,184.514,143.388,184.514,159.35z"/>
<polygon style="fill:#F2F2F2;" points="407.125,503.314 104.668,503.314 80.704,455.785 431.088,455.785 "/>
<polygon style="fill:#E6E6E6;" points="80.704,455.785 104.668,503.314 169.313,503.314 159.175,455.785 "/>
<path d="M438.591,451.229c-1.581-2.568-4.382-4.133-7.398-4.133h-77.03V209.942c0-4.798-3.89-8.687-8.687-8.687
	c-4.798,0-8.687,3.89-8.687,8.687v237.154H175.213V196.337c2.123,0.374,4.303,0.58,6.532,0.58h35.163
	c4.798,0,8.687-3.89,8.687-8.687c0-4.798-3.89-8.687-8.687-8.687h-35.163c-11.138,0-20.2-9.061-20.2-20.2s9.061-20.2,20.2-20.2
	h148.51c11.138,0,20.2,9.061,20.2,20.2s-9.061,20.2-20.2,20.2c-18.432,0-33.427,14.995-33.427,33.427v55.799
	c0,7.663-6.235,13.898-13.898,13.898c-7.663,0-13.898-6.235-13.898-13.898V212.97c0-13.464-8.013-25.552-20.414-30.797
	c-4.419-1.869-9.515,0.198-11.385,4.617c-1.868,4.419,0.198,9.517,4.617,11.385c5.958,2.52,9.807,8.327,9.807,14.795v55.799
	c0,17.244,14.029,31.273,31.273,31.273c17.244,0,31.273-14.029,31.273-31.273V212.97c0-8.852,7.201-16.053,16.053-16.053
	c20.719,0,37.574-16.856,37.574-37.574s-16.856-37.574-37.574-37.574h-65.568v-11.863c9.338-1.722,17.934-6.207,24.792-13.066
	c18.461-18.461,18.461-48.498,0-66.958L262.142,2.546C260.514,0.915,258.304,0,256,0s-4.514,0.915-6.142,2.545l-27.336,27.336
	c-8.943,8.942-13.868,20.832-13.868,33.48c0,12.646,4.925,24.536,13.868,33.48c6.858,6.858,15.454,11.343,24.791,13.066v11.863
	h-65.568c-20.719,0-37.574,16.856-37.574,37.574c0,11.646,5.326,22.069,13.668,28.967v258.787h-77.03
	c-3.016,0-5.816,1.565-7.397,4.133c-1.581,2.568-1.718,5.773-0.36,8.466l23.963,47.529c1.477,2.929,4.477,4.777,7.757,4.777h36.847
	c4.798,0,8.687-3.89,8.687-8.687c0-4.798-3.89-8.687-8.687-8.687H110.12l-15.204-30.154h322.167l-15.204,30.154H169.417
	c-4.798,0-8.687,3.89-8.687,8.687c0,4.798,3.89,8.687,8.687,8.687H407.23c3.28,0,6.28-1.847,7.757-4.777l23.963-47.529
	C440.307,457.002,440.172,453.797,438.591,451.229z M234.806,84.554c-11.686-11.686-11.686-30.701,0-42.387L256,20.973
	l21.193,21.193c11.686,11.686,11.686,30.701,0,42.387c-3.613,3.613-7.926,6.105-12.506,7.484V79.633c0-4.798-3.89-8.687-8.687-8.687
	c-4.798,0-8.687,3.89-8.687,8.687v12.404C242.733,90.659,238.419,88.166,234.806,84.554z"/>
</svg>